<?xml version="1.0" standalone="no"?><!DOCTYPE svg PUBLIC "-//W3C//DTD SVG 1.1//EN" "http://www.w3.org/Graphics/SVG/1.1/DTD/svg11.dtd"><svg t="1608028509821" class="icon" viewBox="0 0 1024 1024" version="1.1" xmlns="http://www.w3.org/2000/svg" p-id="4704" data-spm-anchor-id="a313x.7781069.0.i9" xmlns:xlink="http://www.w3.org/1999/xlink" width="200" height="200"><defs><style type="text/css"></style></defs><path d="M943.104 464.384c0-103.424-88.576-186.88-197.12-186.88-109.056 0-197.12 83.968-197.12 186.88v186.88h199.68c107.52-1.024 194.56-84.48 194.56-186.88z" fill="#ffffff" p-id="4705" data-spm-anchor-id="a313x.7781069.0.i6" class="selected"></path><path d="M818.688 455.168c0-59.392-26.624-112.64-69.12-148.992 0.512-5.632 1.024-11.264 1.024-16.896 0-108.544-88.576-196.096-197.12-196.096S355.84 181.248 355.84 289.792c0 2.048 0 3.584 0.512 5.632-24.576-12.288-52.736-18.944-81.92-18.944-103.424 0-187.392 83.968-187.392 187.392 0 101.376 80.896 183.808 181.248 187.392v0.512h361.984v-0.512c104.96-4.608 188.416-90.624 188.416-196.096z" fill="#ffffff" p-id="4706" data-spm-anchor-id="a313x.7781069.0.i5" class="selected"></path><path d="M349.866667 691.2l56.8064 41.275733-21.700267 66.781867h-70.212267l-21.700266-66.781867zM678.4 674.133333l60.868267 44.219734-23.253334 71.560533h-75.229866l-23.253334-71.560533zM512 776.533333l73.045333 53.0688-27.904 85.8624H466.858667L438.954667 829.610667z" fill="#ffffff" p-id="4707" data-spm-anchor-id="a313x.7781069.0.i7" class="selected"></path></svg>