<?xml version="1.0" standalone="no"?><!DOCTYPE svg PUBLIC "-//W3C//DTD SVG 1.1//EN" "http://www.w3.org/Graphics/SVG/1.1/DTD/svg11.dtd"><svg t="1608028678646" class="icon" viewBox="0 0 1026 1024" version="1.1" xmlns="http://www.w3.org/2000/svg" p-id="8381" xmlns:xlink="http://www.w3.org/1999/xlink" width="200.390625" height="200"><defs><style type="text/css"></style></defs><path d="M276.89 778.957h-36.404a240.486 240.486 0 1 1 48.052-476.16l35.84 7.193-14.49 71.45-35.84-7.296a173.312 173.312 0 0 0-33.562-3.302 167.68 167.68 0 0 0 0 335.36h36.404z" fill="#ffffff" p-id="8382"></path><path d="M851.558 434.202h-72.934v-36.404a234.163 234.163 0 0 0-462.003-51.02l-8.218 35.507-70.886-16.666 8.345-35.507a307.046 307.046 0 0 1 605.824 67.686v36.404z" fill="#ffffff" p-id="8383"></path><path d="M815.155 778.982h-36.531v-72.806h36.531a135.987 135.987 0 0 0 0-271.974h-36.531V361.37h36.531a208.82 208.82 0 1 1 0 417.612z m-480.947 0h-93.722v-72.934h137.421z" fill="#ffffff" p-id="8384"></path><path d="M781.107 779.034H636.262l51.021-72.935h93.824z m-266.24-240.64L376.986 785.946h124.288l-27.392 160.69 164.582-241.382-138.24-3.2z" fill="#ffffff" p-id="8385"></path></svg>