<?xml version="1.0" standalone="no"?><!DOCTYPE svg PUBLIC "-//W3C//DTD SVG 1.1//EN" "http://www.w3.org/Graphics/SVG/1.1/DTD/svg11.dtd"><svg t="1608028139207" class="icon" viewBox="0 0 1293 1024" version="1.1" xmlns="http://www.w3.org/2000/svg" p-id="3175" xmlns:xlink="http://www.w3.org/1999/xlink" width="252.5390625" height="200"><defs><style type="text/css"></style></defs><path d="M570.559816 219.428061c161.583235 0 292.568367 130.985133 292.568367 292.561225 0 161.583235-130.985133 292.568367-292.568367 292.568367-161.576092 0-292.561225-130.985133-292.561225-292.568367 0-161.576092 130.985133-292.561225 292.561225-292.561225z m5.234205 78.368798c-121.186712 0-219.426633 98.239921-219.426633 219.428061 0 121.180998 98.239921 219.420918 219.426633 219.420918 121.182426 0 219.422347-98.239921 219.422347-219.420918 0-121.18814-98.239921-219.428061-219.422347-219.428061zM570.559816 0C590.760934 0 607.13354 16.372606 607.13354 36.573724v109.706888C607.13354 166.481731 590.760934 182.854337 570.559816 182.854337c-20.193976 0-36.566582-16.372606-36.566582-36.573725v-109.706888c0-20.201119 16.372606-36.573724 36.566582-36.573724zM932.61426 149.941985a36.563725 36.563725 0 0 1 0 51.746348l-77.604524 77.564524a36.573724 36.573724 0 0 1-61.684767-16.142609 36.58801 36.58801 0 0 1 9.976989-35.569454l77.565953-77.598809c14.279781-14.279781 37.426569-14.279781 51.706349 0h0.04z m149.941984 362.047301c0 20.201119-16.372606 36.573724-36.573724 36.573724h-109.714031c-20.193976 0-36.566582-16.372606-36.566582-36.573724 0-20.193976 16.372606-36.566582 36.566582-36.566582h109.714031c20.201119 0 36.573724 16.372606 36.573724 36.566582zM932.61426 874.04373a36.562296 36.562296 0 0 1-25.875318 10.725549c-9.704137 0-19.012565-3.857084-25.871031-10.725549l-77.565953-77.604524c-13.861216-14.346923-13.665505-37.15943 0.441422-51.266356s36.919433-14.302638 51.266356-0.441421l77.564524 77.565952c14.281209 14.279781 14.281209 37.426569 0 51.707778l0.04 0.038571zM570.559816 1023.985715c-20.193976 0-36.566582-16.372606-36.566582-36.573725v-109.714031c0-20.193976 16.372606-36.566582 36.566582-36.566581 20.201119 0 36.573724 16.372606 36.573724 36.566581v109.714031c0 20.201119-16.372606 36.573724-36.573724 36.573725zM208.512514 874.04373a36.556582 36.556582 0 0 1-10.725549-25.875317 36.553725 36.553725 0 0 1 10.725549-25.871032l77.59881-77.565952a36.58801 36.58801 0 0 1 35.569454-9.97699 36.573724 36.573724 0 0 1 16.142609 61.684767l-77.564524 77.604524c-14.279781 14.274067-37.433711 14.274067-51.713492 0h-0.032857zM58.57053 511.989286c0-20.193976 16.372606-36.566582 36.573724-36.566582h109.706888c20.201119 0 36.573724 16.372606 36.573725 36.566582C241.424867 532.190404 225.052261 548.56301 204.851142 548.56301H95.144254C74.943136 548.56301 58.57053 532.190404 58.57053 511.989286zM208.512514 149.941985a36.550868 36.550868 0 0 1 25.869603-10.72555 36.556582 36.556582 0 0 1 25.876746 10.72555l77.564524 77.598809a36.570867 36.570867 0 0 1 9.972704 35.569454 36.556582 36.556582 0 0 1-26.115313 26.115314 36.570867 36.570867 0 0 1-35.569454-9.972705l-77.59881-77.564524c-14.279781-14.279781-14.279781-37.433711 0-51.713492v-0.032856z m0 0" p-id="3176" fill="#f4ea2a"></path></svg>