<?xml version="1.0" standalone="no"?><!DOCTYPE svg PUBLIC "-//W3C//DTD SVG 1.1//EN" "http://www.w3.org/Graphics/SVG/1.1/DTD/svg11.dtd"><svg t="1608028592642" class="icon" viewBox="0 0 1024 1024" version="1.1" xmlns="http://www.w3.org/2000/svg" p-id="5848" xmlns:xlink="http://www.w3.org/1999/xlink" width="200" height="200"><defs><style type="text/css"></style></defs><path d="M302.592 684.902h-32.128a211.866 211.866 0 1 1 42.394-419.481l31.41 6.451-12.8 62.925-31.41-6.451a151.885 151.885 0 0 0-29.492-2.919 147.712 147.712 0 1 0 0 295.424h32.128v64z" fill="#8a8a8a" p-id="5849"></path><path d="M808.755 381.184h-64.153v-32.128a206.285 206.285 0 0 0-407.04-44.902l-7.348 31.206-62.438-14.694 7.347-31.207a270.413 270.413 0 0 1 533.581 59.623z" fill="#8a8a8a" p-id="5850"></path><path d="M776.755 684.902h-32.128V620.75h32.128a119.731 119.731 0 1 0 0-239.463h-32.128v-64.128h32.128a183.885 183.885 0 1 1 0 367.744z" fill="#8a8a8a" p-id="5851"></path><path d="M270.464 620.646h506.189v64.128H270.464z m-120.73 120.935h719.77v64.153h-719.77z m0 113.382h719.77v64.154h-719.77z" fill="#8a8a8a" p-id="5852"></path></svg>