<?xml version="1.0" standalone="no"?><!DOCTYPE svg PUBLIC "-//W3C//DTD SVG 1.1//EN" "http://www.w3.org/Graphics/SVG/1.1/DTD/svg11.dtd"><svg t="1608028341997" class="icon" viewBox="0 0 1024 1024" version="1.1" xmlns="http://www.w3.org/2000/svg" p-id="3016" xmlns:xlink="http://www.w3.org/1999/xlink" width="200" height="200"><defs><style type="text/css"></style></defs><path d="M280.806 864.41h-36.275a239.283 239.283 0 1 1 47.847-473.805l35.456 7.168-14.439 71.04-35.456-7.168a172.672 172.672 0 0 0-33.408-3.303 166.758 166.758 0 1 0 0 333.517h36.275z" fill="#2c2c2c" p-id="3017"></path><path d="M852.454 521.446H779.93v-36.25a232.96 232.96 0 0 0-459.597-50.687l-8.295 35.251-70.604-16.589 8.294-35.251a305.46 305.46 0 0 1 602.7 67.405z" fill="#2c2c2c" p-id="3018"></path><path d="M816.23 864.41h-36.275v-72.55h36.275a135.27 135.27 0 1 0 0-270.542h-36.275V448.82h36.275a207.795 207.795 0 0 1 0 415.59z" fill="#2c2c2c" p-id="3019"></path><path d="M244.531 791.987h571.674v72.525H244.53z" fill="#2c2c2c" p-id="3020"></path></svg>