<?xml version="1.0" standalone="no"?><!DOCTYPE svg PUBLIC "-//W3C//DTD SVG 1.1//EN" "http://www.w3.org/Graphics/SVG/1.1/DTD/svg11.dtd"><svg t="1608028301332" class="icon" viewBox="0 0 1024 1024" version="1.1" xmlns="http://www.w3.org/2000/svg" p-id="1860" xmlns:xlink="http://www.w3.org/1999/xlink" width="200" height="200"><defs><style type="text/css"></style></defs><path d="M177.664 605.696a245.76 245.76 0 0 1-15.002-43.366 249.42 249.42 0 0 1 433.613-219.623l-49.331 41.19a185.062 185.062 0 0 0-321.792 162.919 194.022 194.022 0 0 0 11.11 32.154z m155.98-358.682a32.307 32.307 0 0 1-31.231-24.499l-20.71-84.352a32.18 32.18 0 1 1 62.489-15.36l20.838 84.352a32.128 32.128 0 0 1-23.577 38.912 36.122 36.122 0 0 1-7.834 0.973z" fill="#ffffff" p-id="1861"></path><path d="M150.989 381.517a31.488 31.488 0 0 1-16.589-4.685l-74.394-44.851a32.18 32.18 0 0 1 33.28-55.04l74.394 44.851a32.205 32.205 0 0 1-16.717 59.75zM32.666 626.662a32.154 32.154 0 0 1-7.68-63.41l84.352-20.84a32.18 32.18 0 0 1 15.36 62.49l-84.352 20.839a34.253 34.253 0 0 1-7.68 0.921z m525.26-345.6a31.488 31.488 0 0 1-16.588-4.684 32.077 32.077 0 0 1-10.88-44.186l44.85-74.394a32.18 32.18 0 1 1 55.04 33.28l-44.85 74.394a32.102 32.102 0 0 1-27.572 15.565z m-193.05 652.416H332.8a212.48 212.48 0 0 1 0-424.806 210.304 210.304 0 0 1 42.445 4.224l31.462 6.4-12.8 63.053-31.462-6.4a151.347 151.347 0 0 0-29.645-2.97 148.096 148.096 0 0 0 0 296.192h32.154z" fill="#ffffff" p-id="1862"></path><path d="M872.397 628.94H808.09v-32.153a206.72 206.72 0 0 0-407.86-45.081l-7.321 31.36-62.592-14.772 7.321-31.36a271.027 271.027 0 0 1 534.759 59.853v32.154z" fill="#ffffff" p-id="1863"></path><path d="M840.14 933.478h-32.153v-64.204h32.154a120.115 120.115 0 0 0 0-240.23h-32.154v-64.41h32.051a184.422 184.422 0 0 1 0 368.844z" fill="#ffffff" p-id="1864"></path><path d="M332.723 869.171h507.418v64.307H332.723z" fill="#ffffff" p-id="1865"></path></svg>